<mxfile host="Electron" agent="Mozilla/5.0 (Windows NT 10.0; Win64; x64) AppleWebKit/537.36 (KHTML, like Gecko) draw.io/28.1.2 Chrome/138.0.7204.243 Electron/37.4.0 Safari/537.36" version="28.1.2">
  <diagram name="Page-1" id="jIiHiJizr-uoOb0nSmsp">
    <mxGraphModel dx="1155" dy="889" grid="1" gridSize="10" guides="1" tooltips="1" connect="1" arrows="1" fold="1" page="1" pageScale="1" pageWidth="827" pageHeight="1169" math="0" shadow="0">
      <root>
        <mxCell id="0" />
        <mxCell id="1" parent="0" />
        <mxCell id="bBt-MvH0s_w9fHkSnIlU-26" value="" style="rounded=1;whiteSpace=wrap;html=1;fillColor=#CCFFCC;" vertex="1" parent="1">
          <mxGeometry x="40" y="40" width="220" height="60" as="geometry" />
        </mxCell>
        <mxCell id="bBt-MvH0s_w9fHkSnIlU-25" value="" style="rounded=1;whiteSpace=wrap;html=1;fillColor=#CCFFCC;" vertex="1" parent="1">
          <mxGeometry x="340" y="40" width="220" height="60" as="geometry" />
        </mxCell>
        <mxCell id="bBt-MvH0s_w9fHkSnIlU-5" value="" style="ellipse;whiteSpace=wrap;html=1;aspect=fixed;fillColor=#66FF66;" vertex="1" parent="1">
          <mxGeometry x="40" y="160" width="520" height="520" as="geometry" />
        </mxCell>
        <mxCell id="bBt-MvH0s_w9fHkSnIlU-3" value="" style="ellipse;whiteSpace=wrap;html=1;aspect=fixed;fillColor=#00CC00;" vertex="1" parent="1">
          <mxGeometry x="120" y="240" width="360" height="360" as="geometry" />
        </mxCell>
        <mxCell id="bBt-MvH0s_w9fHkSnIlU-1" value="" style="ellipse;whiteSpace=wrap;html=1;aspect=fixed;fillColor=#009900;" vertex="1" parent="1">
          <mxGeometry x="200" y="320" width="200" height="200" as="geometry" />
        </mxCell>
        <mxCell id="bBt-MvH0s_w9fHkSnIlU-2" value="&lt;font style=&quot;&quot;&gt;&lt;span style=&quot;font-size: 16px;&quot;&gt;&lt;b&gt;LLM&lt;/b&gt;&lt;/span&gt;&lt;br&gt;&lt;font&gt;transformer model inference&lt;/font&gt;&lt;br&gt;&lt;/font&gt;&lt;div&gt;(neural network computation)&lt;/div&gt;" style="text;html=1;align=center;verticalAlign=middle;whiteSpace=wrap;rounded=0;" vertex="1" parent="1">
          <mxGeometry x="225" y="380" width="160" height="80" as="geometry" />
        </mxCell>
        <mxCell id="bBt-MvH0s_w9fHkSnIlU-4" value="&lt;font style=&quot;&quot;&gt;&lt;span style=&quot;font-size: 14px;&quot;&gt;Prompt tokenization &amp;amp; formatting&lt;/span&gt;&lt;br&gt;&lt;font&gt;(Jinja2/Go template format)&lt;/font&gt;&lt;/font&gt;" style="text;html=1;align=center;verticalAlign=middle;whiteSpace=wrap;rounded=0;" vertex="1" parent="1">
          <mxGeometry x="560" y="300" width="210" height="40" as="geometry" />
        </mxCell>
        <mxCell id="bBt-MvH0s_w9fHkSnIlU-6" value="&lt;div style=&quot;&quot;&gt;&lt;span style=&quot;background-color: transparent; color: light-dark(rgb(0, 0, 0), rgb(255, 255, 255));&quot;&gt;&lt;span style=&quot;font-size: 14px;&quot;&gt;OpenAI API Rest WebService&lt;/span&gt;&lt;br&gt;&lt;font&gt;(Json)&lt;/font&gt;&lt;/span&gt;&lt;/div&gt;" style="text;html=1;align=center;verticalAlign=middle;whiteSpace=wrap;rounded=0;" vertex="1" parent="1">
          <mxGeometry x="560" y="220" width="210" height="40" as="geometry" />
        </mxCell>
        <mxCell id="bBt-MvH0s_w9fHkSnIlU-7" value="&lt;font style=&quot;&quot;&gt;&lt;b style=&quot;&quot;&gt;&lt;font style=&quot;font-size: 16px;&quot;&gt;Tool&lt;br&gt;&lt;/font&gt;&lt;/b&gt;&lt;font&gt;(e.g. &lt;b style=&quot;&quot;&gt;Llama.cpp&lt;/b&gt;)&lt;/font&gt;&lt;/font&gt;" style="text;html=1;align=center;verticalAlign=middle;whiteSpace=wrap;rounded=0;" vertex="1" parent="1">
          <mxGeometry x="220" y="530" width="160" height="40" as="geometry" />
        </mxCell>
        <mxCell id="bBt-MvH0s_w9fHkSnIlU-8" value="&lt;font style=&quot;&quot;&gt;&lt;b style=&quot;&quot;&gt;&lt;font style=&quot;font-size: 16px;&quot;&gt;GUI&lt;/font&gt;&lt;br&gt;&lt;/b&gt;&lt;font&gt;(e.g. &lt;b style=&quot;&quot;&gt;LM Studio&lt;/b&gt;)&lt;/font&gt;&lt;/font&gt;" style="text;html=1;align=center;verticalAlign=middle;whiteSpace=wrap;rounded=0;" vertex="1" parent="1">
          <mxGeometry x="225" y="610" width="160" height="40" as="geometry" />
        </mxCell>
        <mxCell id="bBt-MvH0s_w9fHkSnIlU-10" value="" style="endArrow=classic;startArrow=classic;html=1;rounded=0;strokeWidth=2;" edge="1" parent="1">
          <mxGeometry width="50" height="50" relative="1" as="geometry">
            <mxPoint x="299.66" y="350" as="sourcePoint" />
            <mxPoint x="299.66" y="290" as="targetPoint" />
          </mxGeometry>
        </mxCell>
        <mxCell id="bBt-MvH0s_w9fHkSnIlU-11" value="" style="endArrow=classic;startArrow=classic;html=1;rounded=0;strokeWidth=2;" edge="1" parent="1">
          <mxGeometry width="50" height="50" relative="1" as="geometry">
            <mxPoint x="299.66" y="270" as="sourcePoint" />
            <mxPoint x="299.95" y="210" as="targetPoint" />
          </mxGeometry>
        </mxCell>
        <mxCell id="bBt-MvH0s_w9fHkSnIlU-13" value="&lt;div&gt;&lt;span style=&quot;background-color: transparent; color: light-dark(rgb(0, 0, 0), rgb(255, 255, 255));&quot;&gt;&lt;font style=&quot;font-size: 16px;&quot;&gt;&lt;b&gt;Why is the sky blue?&lt;/b&gt;&lt;/font&gt;&lt;/span&gt;&lt;/div&gt;" style="text;html=1;align=center;verticalAlign=middle;whiteSpace=wrap;rounded=0;" vertex="1" parent="1">
          <mxGeometry x="40" y="50" width="220" height="40" as="geometry" />
        </mxCell>
        <mxCell id="bBt-MvH0s_w9fHkSnIlU-14" value="&lt;b style=&quot;&quot;&gt;&lt;font style=&quot;font-size: 16px;&quot;&gt;Because of Rayleigh scattering.&lt;/font&gt;&lt;/b&gt;" style="text;html=1;align=center;verticalAlign=middle;whiteSpace=wrap;rounded=0;" vertex="1" parent="1">
          <mxGeometry x="340" y="60" width="220" height="20" as="geometry" />
        </mxCell>
        <mxCell id="bBt-MvH0s_w9fHkSnIlU-15" value="" style="endArrow=classic;html=1;rounded=0;strokeWidth=2;" edge="1" parent="1" target="bBt-MvH0s_w9fHkSnIlU-25">
          <mxGeometry width="50" height="50" relative="1" as="geometry">
            <mxPoint x="300" y="140" as="sourcePoint" />
            <mxPoint x="460" y="130" as="targetPoint" />
          </mxGeometry>
        </mxCell>
        <mxCell id="bBt-MvH0s_w9fHkSnIlU-17" style="edgeStyle=orthogonalEdgeStyle;rounded=0;orthogonalLoop=1;jettySize=auto;html=1;exitX=0.5;exitY=1;exitDx=0;exitDy=0;" edge="1" parent="1" source="bBt-MvH0s_w9fHkSnIlU-13" target="bBt-MvH0s_w9fHkSnIlU-13">
          <mxGeometry relative="1" as="geometry" />
        </mxCell>
        <mxCell id="bBt-MvH0s_w9fHkSnIlU-18" value="" style="endArrow=classic;html=1;rounded=0;entryX=0.5;entryY=0.038;entryDx=0;entryDy=0;entryPerimeter=0;strokeWidth=2;exitX=0.75;exitY=1;exitDx=0;exitDy=0;" edge="1" parent="1" source="bBt-MvH0s_w9fHkSnIlU-26" target="bBt-MvH0s_w9fHkSnIlU-5">
          <mxGeometry width="50" height="50" relative="1" as="geometry">
            <mxPoint x="140" y="130" as="sourcePoint" />
            <mxPoint x="300" y="180" as="targetPoint" />
            <Array as="points">
              <mxPoint x="300" y="140" />
            </Array>
          </mxGeometry>
        </mxCell>
        <mxCell id="bBt-MvH0s_w9fHkSnIlU-22" value="" style="endArrow=none;dashed=1;html=1;dashPattern=1 3;strokeWidth=2;rounded=0;exitX=0.5;exitY=0;exitDx=0;exitDy=0;entryX=0;entryY=0.5;entryDx=0;entryDy=0;" edge="1" parent="1" source="bBt-MvH0s_w9fHkSnIlU-1" target="bBt-MvH0s_w9fHkSnIlU-4">
          <mxGeometry width="50" height="50" relative="1" as="geometry">
            <mxPoint x="460" y="390" as="sourcePoint" />
            <mxPoint x="510" y="340" as="targetPoint" />
          </mxGeometry>
        </mxCell>
        <mxCell id="bBt-MvH0s_w9fHkSnIlU-23" value="" style="endArrow=none;dashed=1;html=1;dashPattern=1 3;strokeWidth=2;rounded=0;" edge="1" parent="1" target="bBt-MvH0s_w9fHkSnIlU-6">
          <mxGeometry width="50" height="50" relative="1" as="geometry">
            <mxPoint x="300" y="240" as="sourcePoint" />
            <mxPoint x="540" y="240" as="targetPoint" />
          </mxGeometry>
        </mxCell>
      </root>
    </mxGraphModel>
  </diagram>
</mxfile>
